<svg width="16" height="12" viewBox="0 0 22 16" fill="none" xmlns="http://www.w3.org/2000/svg">
<path d="M0.569336 2.85781C0.569336 2.16578 0.844241 1.50211 1.33357 1.01277C1.82291 0.52344 2.48659 0.248535 3.17861 0.248535H18.8342C19.5263 0.248535 20.1899 0.52344 20.6793 1.01277C21.1686 1.50211 21.4435 2.16578 21.4435 2.85781V13.2949C21.4435 13.9869 21.1686 14.6506 20.6793 15.1399C20.1899 15.6293 19.5263 15.9042 18.8342 15.9042H3.17861C2.48659 15.9042 1.82291 15.6293 1.33357 15.1399C0.844241 14.6506 0.569336 13.9869 0.569336 13.2949V2.85781ZM3.17861 1.55317C2.8326 1.55317 2.50076 1.69062 2.25609 1.93529C2.01142 2.17996 1.87397 2.5118 1.87397 2.85781V3.14091L11.0064 8.62038L20.1389 3.14091V2.85781C20.1389 2.5118 20.0014 2.17996 19.7568 1.93529C19.5121 1.69062 19.1802 1.55317 18.8342 1.55317H3.17861ZM20.1389 4.66212L13.9966 8.34771L20.1389 12.1272V4.66212ZM20.0945 13.6328L12.7364 9.1044L11.0064 10.1416L9.27647 9.1044L1.91833 13.6315C1.99247 13.9091 2.15619 14.1545 2.38407 14.3295C2.61196 14.5046 2.89126 14.5995 3.17861 14.5995H18.8342C19.1214 14.5996 19.4006 14.5048 19.6284 14.3301C19.8563 14.1553 20.0201 13.9102 20.0945 13.6328V13.6328ZM1.87397 12.1272L8.0162 8.34771L1.87397 4.66212V12.1272Z" fill="#8A8A92"/>
</svg>
