<svg width="16" height="8" viewBox="0 0 18 9" fill="none" xmlns="http://www.w3.org/2000/svg">
<path d="M4.50678 8.78138C5.5451 8.78006 6.55119 8.43865 7.35541 7.81472C8.15963 7.19078 8.71279 6.32248 8.92161 5.35623H10.8163V7.0688H12.619V5.35623H14.4217V7.92509H16.2244V5.35623H17.1257V3.64366H8.92161C8.71279 2.6774 8.15963 1.8091 7.35541 1.18517C6.55119 0.561234 5.5451 0.219824 4.50678 0.218506C2.02174 0.218506 0 2.13916 0 4.49994C0 6.86073 2.02174 8.78138 4.50678 8.78138ZM4.50678 1.93108C5.99762 1.93108 7.21084 3.08364 7.21084 4.49994C7.21084 5.91624 5.99762 7.0688 4.50678 7.0688C3.01593 7.0688 1.80271 5.91624 1.80271 4.49994C1.80271 3.08364 3.01593 1.93108 4.50678 1.93108Z" fill="#8A8A92"/>
</svg>
