<svg width="14" height="14" viewBox="0 0 12 13" fill="none" xmlns="http://www.w3.org/2000/svg">
<path d="M11.5292 10.293C11.2282 9.61936 10.7914 9.00749 10.2431 8.49146C9.69641 7.97393 9.04886 7.56131 8.33615 7.27638C8.32977 7.27337 8.32339 7.27186 8.31701 7.26884C9.31115 6.59045 9.95742 5.48543 9.95742 4.23869C9.95742 2.17337 8.18616 0.5 6 0.5C3.81384 0.5 2.04258 2.17337 2.04258 4.23869C2.04258 5.48543 2.68885 6.59045 3.68299 7.27035C3.67661 7.27337 3.67023 7.27487 3.66385 7.27789C2.94896 7.56281 2.30747 7.97136 1.75694 8.49297C1.20914 9.0094 0.772382 9.62116 0.470781 10.2945C0.174489 10.9536 0.0146918 11.6604 3.99029e-05 12.3764C-0.000386007 12.3925 0.00260125 12.4085 0.00882574 12.4235C0.0150502 12.4384 0.024386 12.4521 0.0362829 12.4636C0.0481797 12.4751 0.0623971 12.4843 0.0780971 12.4905C0.0937971 12.4968 0.110662 12.5 0.127699 12.5H1.08514C1.15535 12.5 1.2112 12.4472 1.2128 12.3824C1.24471 11.2186 1.73939 10.1286 2.61385 9.30251C3.51863 8.44774 4.72022 7.97739 6 7.97739C7.27978 7.97739 8.48137 8.44774 9.38615 9.30251C10.2606 10.1286 10.7553 11.2186 10.7872 12.3824C10.7888 12.4487 10.8446 12.5 10.9149 12.5H11.8723C11.8893 12.5 11.9062 12.4968 11.9219 12.4905C11.9376 12.4843 11.9518 12.4751 11.9637 12.4636C11.9756 12.4521 11.9849 12.4384 11.9912 12.4235C11.9974 12.4085 12.0004 12.3925 12 12.3764C11.984 11.6558 11.826 10.9548 11.5292 10.293ZM6 6.83166C5.26756 6.83166 4.5782 6.56181 4.05959 6.07186C3.54097 5.58191 3.25534 4.93065 3.25534 4.23869C3.25534 3.54673 3.54097 2.89548 4.05959 2.40553C4.5782 1.91558 5.26756 1.64573 6 1.64573C6.73244 1.64573 7.4218 1.91558 7.94041 2.40553C8.45903 2.89548 8.74466 3.54673 8.74466 4.23869C8.74466 4.93065 8.45903 5.58191 7.94041 6.07186C7.4218 6.56181 6.73244 6.83166 6 6.83166Z" fill="#8A8A92"/>
</svg>
