<svg width="16" height="15" viewBox="0 0 16 15" fill="none" xmlns="http://www.w3.org/2000/svg">
<path d="M11.5086 9.69676C12.4163 8.45791 12.8229 6.92194 12.6469 5.39615C12.471 3.87036 11.7255 2.46727 10.5596 1.4676C9.39374 0.467925 7.89345 -0.0546141 6.3589 0.00452304C4.82436 0.0636602 3.36872 0.700112 2.28321 1.78655C1.19771 2.87298 0.562387 4.32928 0.504356 5.86409C0.446325 7.39889 0.969864 8.89902 1.97023 10.0643C2.9706 11.2297 4.37402 11.9743 5.89972 12.1491C7.42542 12.324 8.96088 11.9163 10.1989 11.0075H10.198C10.2261 11.045 10.2561 11.0807 10.2898 11.1153L13.8991 14.7251C14.0749 14.901 14.3133 14.9999 14.562 15C14.8107 15.0001 15.0492 14.9014 15.2251 14.7256C15.401 14.5498 15.4999 14.3113 15.5 14.0625C15.5001 13.8138 15.4014 13.5753 15.2256 13.3993L11.6164 9.78959C11.5828 9.75565 11.5468 9.72431 11.5086 9.69583V9.69676ZM11.7504 6.09264C11.7504 6.76984 11.6171 7.44041 11.3579 8.06606C11.0988 8.69171 10.719 9.26019 10.2402 9.73904C9.76146 10.2179 9.19306 10.5977 8.5675 10.8569C7.94194 11.116 7.27147 11.2494 6.59436 11.2494C5.91726 11.2494 5.24679 11.116 4.62123 10.8569C3.99566 10.5977 3.42726 10.2179 2.94848 9.73904C2.4697 9.26019 2.0899 8.69171 1.83079 8.06606C1.57167 7.44041 1.43831 6.76984 1.43831 6.09264C1.43831 4.72498 1.98153 3.41333 2.94848 2.44625C3.91543 1.47916 5.22689 0.93586 6.59436 0.93586C7.96183 0.93586 9.2733 1.47916 10.2402 2.44625C11.2072 3.41333 11.7504 4.72498 11.7504 6.09264Z" fill="#6E6E76"/>
</svg>
