<svg width="140" height="89" viewBox="0 0 140 89" fill="none" xmlns="http://www.w3.org/2000/svg">
<path d="M12.4192 82.3606L3.89641 21.8375C3.67748 20.2828 4.76033 18.845 6.31503 18.6261L32.4997 14.9388C33.2575 14.8321 34.0263 15.0354 34.6323 15.5028L47.7271 25.6029C49.0013 26.5857 49.2065 28.4292 48.1795 29.6681L32.7814 48.2442C31.5498 49.7299 32.1249 51.9847 33.9176 52.6992L63.007 64.2925C65.9686 65.4728 68.3309 61.6321 65.9417 59.5213L55.2782 50.1002C54.0335 49.0005 53.9926 47.0726 55.1894 45.9211L72.9719 28.8123C74.16 27.6692 74.1297 25.7584 72.9059 24.6536L62.6606 15.4043C60.8697 13.7876 61.7801 10.8156 64.1691 10.4792L97.7444 5.75116C99.2991 5.53223 100.737 6.61508 100.956 8.16978L102.282 17.5894C102.597 19.823 105.263 20.8182 106.964 19.3372L123.41 5.02014C125.112 3.53911 127.777 4.53432 128.092 6.7679L135.894 62.1719C136.219 64.479 133.783 66.1758 131.731 65.0715L112.047 54.4758C109.996 53.3715 107.56 55.0683 107.885 57.3753L109.479 68.6929C109.698 70.2476 108.615 71.6854 107.06 71.9044L15.6306 84.7793C14.0759 84.9982 12.6381 83.9153 12.4192 82.3606Z" stroke="#FC9A3F" stroke-width="7.10701"/>
</svg>
