<svg width="13" height="15" viewBox="0 0 14 15" fill="none" xmlns="http://www.w3.org/2000/svg">
<path d="M0.5 1C0.5 0.867392 0.552678 0.740215 0.646447 0.646447C0.740215 0.552678 0.867392 0.5 1 0.5H13C13.1326 0.5 13.2598 0.552678 13.3536 0.646447C13.4473 0.740215 13.5 0.867392 13.5 1V3C13.5 3.12331 13.4544 3.24226 13.372 3.334L9 8.192V13C8.99992 13.1049 8.96685 13.2071 8.90547 13.2922C8.8441 13.3772 8.75752 13.4409 8.658 13.474L5.658 14.474C5.58287 14.499 5.50288 14.5058 5.4246 14.4939C5.34632 14.482 5.272 14.4516 5.20775 14.4053C5.1435 14.359 5.09116 14.2982 5.05504 14.2277C5.01893 14.1572 5.00006 14.0792 5 14V8.192L0.628 3.334C0.545608 3.24226 0.500022 3.12331 0.5 3V1ZM1.5 1.5V2.808L5.872 7.666C5.95439 7.75774 5.99998 7.87669 6 8V13.306L8 12.64V8C8.00002 7.87669 8.04561 7.75774 8.128 7.666L12.5 2.808V1.5H1.5Z" fill="#FC9A3F"/>
</svg>
