<svg width="99" height="71" viewBox="0 0 99 71" fill="none" xmlns="http://www.w3.org/2000/svg">
<path d="M24.008 18C24.008 19.5913 23.3759 21.1174 22.2506 22.2426C21.1254 23.3679 19.5993 24 18.008 24C16.4167 24 14.8906 23.3679 13.7654 22.2426C12.6401 21.1174 12.008 19.5913 12.008 18C12.008 16.4087 12.6401 14.8826 13.7654 13.7574C14.8906 12.6321 16.4167 12 18.008 12C19.5993 12 21.1254 12.6321 22.2506 13.7574C23.3759 14.8826 24.008 16.4087 24.008 18Z" fill="#F2F2F3"/>
<path d="M8.008 0C5.88626 0 3.85143 0.842855 2.35114 2.34315C0.85085 3.84344 0.00799561 5.87827 0.00799561 8V48C0.00799561 50.1217 0.85085 52.1566 2.35114 53.6569C3.85143 55.1571 5.88626 56 8.008 56H42L50.5 42.5L64.008 20V8C64.008 5.87827 63.1651 3.84344 61.6649 2.34315C60.1646 0.842855 58.1297 0 56.008 0H8.008ZM56.008 4C57.0689 4 58.0863 4.42143 58.8364 5.17157C59.5866 5.92172 60.008 6.93913 60.008 8V19L50 35L47.5 31C47.1249 30.8121 44.1002 25.9589 43.686 26.0257C43.2718 26.0924 42.8891 26.2878 42.592 26.584L27.752 41.424L17.112 34.336C16.7278 34.0802 16.267 33.9652 15.8077 34.0104C15.3485 34.0556 14.9189 34.2583 14.592 34.584L4.008 44V8C4.008 6.93913 4.42942 5.92172 5.17957 5.17157C5.92971 4.42143 6.94713 4 8.008 4H56.008Z" fill="#F2F2F3"/>
<path d="M69.2651 22.7786C69.3374 22.7387 69.4187 22.7182 69.5011 22.7192C69.5822 22.7188 69.6622 22.7393 69.7333 22.7786C69.8176 22.8295 69.8865 22.9027 69.9324 22.9903L95.2132 66.3205C95.3459 66.5433 95.3422 66.781 95.2205 67.0001C95.1738 67.09 95.1053 67.1667 95.0214 67.223C94.9484 67.2681 94.8637 67.2901 94.7781 67.2861H44.224C44.1384 67.2903 44.0536 67.2683 43.9807 67.223C43.8968 67.1667 43.8284 67.09 43.7816 67.0001C43.7209 66.897 43.6894 66.7791 43.6907 66.6593C43.692 66.5394 43.726 66.4222 43.789 66.3205L69.066 22.9903C69.1121 22.9028 69.1809 22.8297 69.2651 22.7786ZM73.1142 21.1073C72.7492 20.4669 72.223 19.9349 71.5886 19.5648C70.9542 19.1948 70.2341 19 69.5011 19C68.768 19 68.0479 19.1948 67.4136 19.5648C66.7792 19.9349 66.2529 20.4669 65.888 21.1073L40.6072 64.4375C38.9223 67.3269 40.9427 71 44.2203 71H94.7781C98.0557 71 100.08 67.3232 98.3912 64.4375L73.1142 21.1073Z" fill="#F2F2F3"/>
<path d="M66 59.3773C66 58.9015 66.0905 58.4304 66.2664 57.9909C66.4423 57.5514 66.7001 57.152 67.0251 56.8156C67.3501 56.4792 67.736 56.2124 68.1606 56.0303C68.5852 55.8482 69.0404 55.7545 69.5 55.7545C69.9596 55.7545 70.4148 55.8482 70.8394 56.0303C71.264 56.2124 71.6499 56.4792 71.9749 56.8156C72.2999 57.152 72.5577 57.5514 72.7336 57.9909C72.9095 58.4304 73 58.9015 73 59.3773C73 60.3381 72.6313 61.2595 71.9749 61.9389C71.3185 62.6183 70.4283 63 69.5 63C68.5717 63 67.6815 62.6183 67.0251 61.9389C66.3687 61.2595 66 60.3381 66 59.3773ZM66.343 37.6227C66.2964 37.1657 66.3431 36.7036 66.4802 36.2665C66.6173 35.8294 66.8416 35.4269 67.1386 35.0853C67.4356 34.7437 67.7987 34.4706 68.2043 34.2836C68.6099 34.0966 69.049 34 69.493 34C69.937 34 70.3761 34.0966 70.7817 34.2836C71.1873 34.4706 71.5504 34.7437 71.8474 35.0853C72.1444 35.4269 72.3687 35.8294 72.5058 36.2665C72.6429 36.7036 72.6896 37.1657 72.643 37.6227L71.418 50.3277C71.3768 50.8268 71.1562 51.2917 70.7997 51.6305C70.4433 51.9693 69.977 52.1573 69.493 52.1573C69.009 52.1573 68.5427 51.9693 68.1863 51.6305C67.8298 51.2917 67.6092 50.8268 67.568 50.3277L66.343 37.6227Z" fill="#F2F2F3"/>
</svg>
