<svg width="20" height="16" viewBox="0 0 20 16" fill="none" xmlns="http://www.w3.org/2000/svg">
<path fill-rule="evenodd" clip-rule="evenodd" d="M0 15.1111C0 14.8754 0.0936507 14.6493 0.26035 14.4826C0.427049 14.3159 0.653141 14.2222 0.888889 14.2222H18.6667C18.9024 14.2222 19.1285 14.3159 19.2952 14.4826C19.4619 14.6493 19.5556 14.8754 19.5556 15.1111C19.5556 15.3469 19.4619 15.573 19.2952 15.7397C19.1285 15.9064 18.9024 16 18.6667 16H0.888889C0.653141 16 0.427049 15.9064 0.26035 15.7397C0.0936507 15.573 0 15.3469 0 15.1111ZM0 8C0 7.76425 0.0936507 7.53816 0.26035 7.37146C0.427049 7.20476 0.653141 7.11111 0.888889 7.11111H18.6667C18.9024 7.11111 19.1285 7.20476 19.2952 7.37146C19.4619 7.53816 19.5556 7.76425 19.5556 8C19.5556 8.23575 19.4619 8.46184 19.2952 8.62854C19.1285 8.79524 18.9024 8.88889 18.6667 8.88889H0.888889C0.653141 8.88889 0.427049 8.79524 0.26035 8.62854C0.0936507 8.46184 0 8.23575 0 8ZM0 0.888889C0 0.653141 0.0936507 0.427049 0.26035 0.26035C0.427049 0.0936507 0.653141 0 0.888889 0H18.6667C18.9024 0 19.1285 0.0936507 19.2952 0.26035C19.4619 0.427049 19.5556 0.653141 19.5556 0.888889C19.5556 1.12464 19.4619 1.35073 19.2952 1.51743C19.1285 1.68413 18.9024 1.77778 18.6667 1.77778H0.888889C0.653141 1.77778 0.427049 1.68413 0.26035 1.51743C0.0936507 1.35073 0 1.12464 0 0.888889Z" fill="#F2F2F3"/>
</svg>
