<svg width="16" height="16" viewBox="0 0 16 16" fill="none" xmlns="http://www.w3.org/2000/svg">
<path d="M15.8542 0.417512C15.9234 0.486844 15.9707 0.574986 15.9903 0.670989C16.0098 0.766992 16.0008 0.866626 15.9642 0.957512L10.1452 15.5045C10.0939 15.6326 10.0083 15.7441 9.89771 15.8267C9.78715 15.9093 9.65596 15.9597 9.51856 15.9726C9.38116 15.9854 9.2429 15.96 9.11897 15.8993C8.99505 15.8386 8.89027 15.7449 8.81618 15.6285L5.63818 10.6335L0.643176 7.45551C0.526494 7.3815 0.432527 7.27668 0.371646 7.15264C0.310764 7.0286 0.285334 6.89015 0.298161 6.75256C0.310988 6.61498 0.361574 6.48362 0.444337 6.37297C0.5271 6.26232 0.638822 6.17668 0.767176 6.12551L15.3142 0.308512C15.4051 0.271924 15.5047 0.262845 15.6007 0.282401C15.6967 0.301957 15.7848 0.349287 15.8542 0.418512V0.417512ZM6.63618 10.3415L9.39718 14.6795L14.1302 2.84751L6.63618 10.3415ZM13.4232 2.14051L1.59118 6.87351L5.93018 9.63351L13.4242 2.14051H13.4232Z" fill="#202029"/>
</svg>
