<svg width="158" height="34" viewBox="0 0 158 34" fill="none" xmlns="http://www.w3.org/2000/svg">
<path fill-rule="evenodd" clip-rule="evenodd" d="M6.17799 29.5789C2.40956 26.5288 0 21.8658 0 16.6443C0 7.45812 7.45814 0 16.6443 0C21.7794 0 26.3746 2.33058 29.4272 5.99192L16.6443 16.6443L29.4272 27.2967C26.3913 30.9379 21.8299 33.2629 16.7283 33.2873C16.3556 30.1992 13.7225 27.8036 10.5343 27.8036C8.83973 27.8036 7.30204 28.4804 6.17799 29.5789Z" fill="#FC9A3F"/>
<path d="M16.6441 27.047C22.3893 27.047 27.0468 22.3895 27.0468 16.6443C27.0468 10.8991 22.3893 6.24168 16.6441 6.24168C10.8989 6.24168 6.24146 10.8991 6.24146 16.6443C6.24146 22.3895 10.8989 27.047 16.6441 27.047Z" fill="#F2F2F3" stroke="#202029" stroke-width="0.665407" stroke-miterlimit="1.5" stroke-linecap="round" stroke-linejoin="round"/>
<path fill-rule="evenodd" clip-rule="evenodd" d="M12.166 9.6331C13.4585 8.80251 14.9957 8.32217 16.6441 8.32217C21.2372 8.32217 24.9663 12.0512 24.9663 16.6443C24.9663 21.2374 21.2372 24.9664 16.6441 24.9664C12.0511 24.9664 8.32202 21.2374 8.32202 16.6443C8.32202 15.8088 8.44543 15.0019 8.67636 14.2414C9.10825 14.5001 9.61354 14.647 10.1529 14.647C11.7605 14.647 13.0657 13.3418 13.0657 11.7343C13.0657 10.9081 12.7209 10.1618 12.166 9.6331Z" fill="#202029" stroke="black" stroke-width="0.000829121" stroke-miterlimit="1.5" stroke-linecap="round" stroke-linejoin="round"/>
<path d="M15.3445 16.0372C15.6839 16.0971 16.0077 15.8704 16.0675 15.531C16.1274 15.1915 15.9007 14.8678 15.5612 14.8079C15.2217 14.748 14.898 14.9747 14.8381 15.3142C14.7783 15.6537 15.005 15.9774 15.3445 16.0372Z" fill="#F2F2F3" stroke="black" stroke-width="0.000831718" stroke-miterlimit="1.5" stroke-linecap="round" stroke-linejoin="round"/>
<path d="M31.2253 24.6437V13.2731H34.5223V24.6437H31.2253ZM32.8738 11.688C32.2679 11.688 31.7748 11.5119 31.3944 11.1597C31.0139 10.8074 30.8237 10.3706 30.8237 9.8493C30.8237 9.32797 31.0139 8.89119 31.3944 8.53894C31.7748 8.18669 32.2679 8.01057 32.8738 8.01057C33.4797 8.01057 33.9728 8.17965 34.3532 8.51781C34.7337 8.84187 34.9239 9.26457 34.9239 9.7859C34.9239 10.3354 34.7337 10.7933 34.3532 11.1597C33.9869 11.5119 33.4938 11.688 32.8738 11.688ZM45.1274 13.1041C46.0291 13.1041 46.8323 13.2872 47.5367 13.6536C48.2553 14.0058 48.8189 14.5553 49.2275 15.3021C49.6361 16.0348 49.8404 16.9788 49.8404 18.1342V24.6437H46.5434V18.6414C46.5434 17.7255 46.3391 17.0492 45.9305 16.6124C45.536 16.1757 44.9724 15.9573 44.2397 15.9573C43.7184 15.9573 43.2464 16.07 42.8237 16.2954C42.4151 16.5068 42.091 16.8379 41.8515 17.2888C41.626 17.7396 41.5133 18.3173 41.5133 19.0218V24.6437H38.2163V13.2731H41.3654V16.4222L40.7736 15.4712C41.1822 14.7103 41.7669 14.1256 42.5278 13.717C43.2886 13.3084 44.1552 13.1041 45.1274 13.1041ZM59.1886 24.8128C57.8924 24.8128 56.7511 24.5591 55.7648 24.0519C54.7926 23.5447 54.0388 22.8543 53.5034 21.9807C52.968 21.093 52.7002 20.0856 52.7002 18.9584C52.7002 17.8171 52.9609 16.8097 53.4822 15.9361C54.0177 15.0485 54.7433 14.3581 55.6591 13.8649C56.575 13.3577 57.6106 13.1041 58.7659 13.1041C59.879 13.1041 60.8794 13.3436 61.7671 13.8226C62.6688 14.2876 63.3804 14.9639 63.9017 15.8516C64.423 16.7252 64.6837 17.7749 64.6837 19.0007C64.6837 19.1275 64.6766 19.2754 64.6626 19.4445C64.6485 19.5995 64.6344 19.7474 64.6203 19.8883H55.3844V17.9651H62.8872L61.6191 18.5357C61.6191 17.9439 61.4994 17.4297 61.2599 16.9929C61.0203 16.5561 60.6892 16.2179 60.2665 15.9784C59.8438 15.7248 59.3507 15.598 58.7871 15.598C58.2235 15.598 57.7233 15.7248 57.2865 15.9784C56.8638 16.2179 56.5327 16.5631 56.2932 17.014C56.0536 17.4508 55.9339 17.9721 55.9339 18.578V19.0852C55.9339 19.7052 56.0677 20.2547 56.3354 20.7337C56.6172 21.1987 57.0047 21.558 57.4979 21.8116C58.0051 22.0511 58.5969 22.1709 59.2732 22.1709C59.879 22.1709 60.4074 22.0793 60.8583 21.8961C61.3233 21.713 61.746 21.4382 62.1264 21.0719L63.8806 22.974C63.3592 23.5658 62.7041 24.0237 61.915 24.3478C61.126 24.6578 60.2172 24.8128 59.1886 24.8128ZM56.7793 11.8148L59.6325 8.77142H63.1831L59.3577 11.8148H56.7793ZM71.7708 24.6437L65.3881 9.8493H69.0867L74.6663 22.9529H72.4894L78.1535 9.8493H81.5562L75.1524 24.6437H71.7708ZM87.7573 24.8128C86.5456 24.8128 85.4677 24.5591 84.5237 24.0519C83.5937 23.5447 82.854 22.8543 82.3045 21.9807C81.7691 21.093 81.5014 20.0856 81.5014 18.9584C81.5014 17.8171 81.7691 16.8097 82.3045 15.9361C82.854 15.0485 83.5937 14.3581 84.5237 13.8649C85.4677 13.3577 86.5456 13.1041 87.7573 13.1041C88.9549 13.1041 90.0258 13.3577 90.9698 13.8649C91.9138 14.3581 92.6535 15.0414 93.189 15.915C93.7244 16.7886 93.9921 17.803 93.9921 18.9584C93.9921 20.0856 93.7244 21.093 93.189 21.9807C92.6535 22.8543 91.9138 23.5447 90.9698 24.0519C90.0258 24.5591 88.9549 24.8128 87.7573 24.8128ZM87.7573 22.1075C88.3068 22.1075 88.8 21.9807 89.2367 21.7271C89.6735 21.4735 90.0187 21.1142 90.2724 20.6492C90.526 20.1701 90.6528 19.6065 90.6528 18.9584C90.6528 18.2962 90.526 17.7326 90.2724 17.2676C90.0187 16.8027 89.6735 16.4434 89.2367 16.1897C88.8 15.9361 88.3068 15.8093 87.7573 15.8093C87.2078 15.8093 86.7147 15.9361 86.2779 16.1897C85.8411 16.4434 85.4888 16.8027 85.2211 17.2676C84.9675 17.7326 84.8407 18.2962 84.8407 18.9584C84.8407 19.6065 84.9675 20.1701 85.2211 20.6492C85.4888 21.1142 85.8411 21.4735 86.2779 21.7271C86.7147 21.9807 87.2078 22.1075 87.7573 22.1075ZM96.8299 24.6437V13.2731H99.979V16.4856L99.5352 15.5557C99.8733 14.7526 100.416 14.1467 101.163 13.7381C101.909 13.3154 102.818 13.1041 103.889 13.1041V16.1475C103.748 16.1334 103.621 16.1263 103.509 16.1263C103.396 16.1123 103.276 16.1052 103.149 16.1052C102.247 16.1052 101.515 16.3659 100.951 16.8872C100.402 17.3944 100.127 18.1905 100.127 19.2754V24.6437H96.8299ZM112.715 24.6437V22.4245L112.504 21.9384V17.9651C112.504 17.2606 112.285 16.7111 111.848 16.3166C111.426 15.922 110.77 15.7248 109.883 15.7248C109.277 15.7248 108.678 15.8234 108.086 16.0207C107.509 16.2038 107.016 16.4575 106.607 16.7815L105.423 14.4778C106.043 14.041 106.79 13.7029 107.664 13.4634C108.537 13.2238 109.425 13.1041 110.327 13.1041C112.06 13.1041 113.405 13.5127 114.363 14.3299C115.322 15.1471 115.801 16.4222 115.801 18.1553V24.6437H112.715ZM109.249 24.8128C108.361 24.8128 107.6 24.6648 106.966 24.3689C106.332 24.0589 105.846 23.6433 105.508 23.122C105.17 22.6006 105.001 22.0159 105.001 21.3678C105.001 20.6915 105.163 20.0997 105.487 19.5925C105.825 19.0852 106.353 18.6907 107.072 18.4089C107.79 18.113 108.727 17.9651 109.883 17.9651H112.905V19.8883H110.242C109.467 19.8883 108.932 20.0152 108.636 20.2688C108.354 20.5224 108.213 20.8394 108.213 21.2198C108.213 21.6425 108.375 21.9807 108.699 22.2343C109.037 22.4738 109.495 22.5936 110.073 22.5936C110.623 22.5936 111.116 22.4668 111.552 22.2132C111.989 21.9455 112.306 21.558 112.504 21.0508L113.011 22.5725C112.771 23.3051 112.334 23.8617 111.7 24.2421C111.066 24.6225 110.249 24.8128 109.249 24.8128ZM124.996 24.8128C123.77 24.8128 122.678 24.5662 121.72 24.073C120.762 23.5658 120.008 22.8684 119.459 21.9807C118.923 21.093 118.656 20.0856 118.656 18.9584C118.656 17.8171 118.923 16.8097 119.459 15.9361C120.008 15.0485 120.762 14.3581 121.72 13.8649C122.678 13.3577 123.77 13.1041 124.996 13.1041C126.194 13.1041 127.236 13.3577 128.124 13.8649C129.012 14.3581 129.667 15.0696 130.09 15.9995L127.532 17.3733C127.236 16.8379 126.863 16.4434 126.412 16.1897C125.975 15.9361 125.496 15.8093 124.975 15.8093C124.411 15.8093 123.904 15.9361 123.453 16.1897C123.002 16.4434 122.643 16.8027 122.375 17.2676C122.122 17.7326 121.995 18.2962 121.995 18.9584C121.995 19.6206 122.122 20.1842 122.375 20.6492C122.643 21.1142 123.002 21.4735 123.453 21.7271C123.904 21.9807 124.411 22.1075 124.975 22.1075C125.496 22.1075 125.975 21.9877 126.412 21.7482C126.863 21.4946 127.236 21.093 127.532 20.5435L130.09 21.9384C129.667 22.8543 129.012 23.5658 128.124 24.073C127.236 24.5662 126.194 24.8128 124.996 24.8128ZM138.121 24.8128C136.824 24.8128 135.683 24.5591 134.697 24.0519C133.725 23.5447 132.971 22.8543 132.435 21.9807C131.9 21.093 131.632 20.0856 131.632 18.9584C131.632 17.8171 131.893 16.8097 132.414 15.9361C132.95 15.0485 133.675 14.3581 134.591 13.8649C135.507 13.3577 136.543 13.1041 137.698 13.1041C138.811 13.1041 139.811 13.3436 140.699 13.8226C141.601 14.2876 142.312 14.9639 142.834 15.8516C143.355 16.7252 143.616 17.7749 143.616 19.0007C143.616 19.1275 143.609 19.2754 143.595 19.4445C143.58 19.5995 143.566 19.7474 143.552 19.8883H134.316V17.9651H141.819L140.551 18.5357C140.551 17.9439 140.431 17.4297 140.192 16.9929C139.952 16.5561 139.621 16.2179 139.198 15.9784C138.776 15.7248 138.283 15.598 137.719 15.598C137.155 15.598 136.655 15.7248 136.218 15.9784C135.796 16.2179 135.465 16.5631 135.225 17.014C134.986 17.4508 134.866 17.9721 134.866 18.578V19.0852C134.866 19.7052 135 20.2547 135.267 20.7337C135.549 21.1987 135.937 21.558 136.43 21.8116C136.937 22.0511 137.529 22.1709 138.205 22.1709C138.811 22.1709 139.339 22.0793 139.79 21.8961C140.255 21.713 140.678 21.4382 141.058 21.0719L142.813 22.974C142.291 23.5658 141.636 24.0237 140.847 24.3478C140.058 24.6578 139.149 24.8128 138.121 24.8128ZM150.27 24.8128C149.298 24.8128 148.361 24.7 147.459 24.4746C146.572 24.2351 145.867 23.9392 145.346 23.5869L146.445 21.2198C146.966 21.5439 147.579 21.8116 148.283 22.023C149.002 22.2202 149.707 22.3188 150.397 22.3188C151.158 22.3188 151.693 22.2273 152.003 22.0441C152.327 21.8609 152.489 21.6073 152.489 21.2832C152.489 21.0155 152.362 20.8183 152.109 20.6915C151.869 20.5506 151.545 20.4449 151.137 20.3744C150.728 20.304 150.277 20.2335 149.784 20.1631C149.305 20.0926 148.819 20.0011 148.326 19.8883C147.833 19.7615 147.382 19.5784 146.973 19.3388C146.565 19.0993 146.233 18.7752 145.98 18.3666C145.74 17.958 145.62 17.4297 145.62 16.7815C145.62 16.0629 145.825 15.4289 146.233 14.8794C146.656 14.3299 147.262 13.9001 148.051 13.5902C148.84 13.2661 149.784 13.1041 150.883 13.1041C151.658 13.1041 152.447 13.1886 153.25 13.3577C154.053 13.5268 154.723 13.7733 155.258 14.0974L154.159 16.4434C153.609 16.1193 153.053 15.9009 152.489 15.7882C151.94 15.6614 151.404 15.598 150.883 15.598C150.15 15.598 149.615 15.6966 149.277 15.8939C148.939 16.0911 148.77 16.3447 148.77 16.6547C148.77 16.9365 148.889 17.1479 149.129 17.2888C149.382 17.4297 149.714 17.5424 150.122 17.6269C150.531 17.7115 150.975 17.7889 151.454 17.8594C151.947 17.9158 152.44 18.0073 152.933 18.1342C153.426 18.261 153.87 18.4441 154.265 18.6837C154.673 18.9091 155.004 19.2261 155.258 19.6347C155.512 20.0292 155.638 20.5506 155.638 21.1987C155.638 21.9032 155.427 22.5302 155.004 23.0797C154.582 23.6151 153.969 24.0378 153.166 24.3478C152.377 24.6578 151.411 24.8128 150.27 24.8128Z" fill="#FCFCFC"/>
</svg>
