<svg width="9" height="15" viewBox="0 0 9 15" fill="none" xmlns="http://www.w3.org/2000/svg">
<path d="M8.58978 8.52887L1.99466 14.3195C1.21749 15.0029 4.42369e-07 14.4475 4.42369e-07 13.4104V1.82904C-0.000197853 1.59692 0.0662735 1.36967 0.191455 1.17449C0.316636 0.979317 0.49522 0.824492 0.705822 0.728557C0.916423 0.632622 1.15011 0.599646 1.37891 0.633576C1.60771 0.667506 1.82191 0.766904 1.99586 0.919868L8.58858 6.71054C8.7178 6.82386 8.82137 6.96362 8.89233 7.12044C8.96329 7.27725 9 7.44748 9 7.6197C9 7.79193 8.96329 7.96216 8.89233 8.11897C8.82137 8.27578 8.7178 8.41555 8.58858 8.52887H8.58978Z" fill="#FC783F"/>
</svg>