<svg width="13" height="15" viewBox="0 0 13 15" fill="none" xmlns="http://www.w3.org/2000/svg">
<path d="M0 1C0 0.867392 0.0526784 0.740215 0.146447 0.646447C0.240215 0.552678 0.367392 0.5 0.5 0.5H12.5C12.6326 0.5 12.7598 0.552678 12.8536 0.646447C12.9473 0.740215 13 0.867392 13 1V3C13 3.12331 12.9544 3.24226 12.872 3.334L8.5 8.192V13C8.49992 13.1049 8.46685 13.2071 8.40547 13.2922C8.3441 13.3772 8.25752 13.4409 8.158 13.474L5.158 14.474C5.08287 14.499 5.00288 14.5058 4.9246 14.4939C4.84632 14.482 4.772 14.4516 4.70775 14.4053C4.6435 14.359 4.59116 14.2982 4.55504 14.2277C4.51893 14.1572 4.50006 14.0792 4.5 14V8.192L0.128 3.334C0.0456082 3.24226 2.21504e-05 3.12331 0 3V1Z" fill="#FC9A3F"/>
</svg>
